<svg xmlns="http://www.w3.org/2000/svg" aria-hidden="true" style="position:absolute;width:0;height:0;overflow:hidden"><defs><symbol id="icon-antenna" viewBox="0 0 32 32"><path fill="#2e2f42" d="m30.8 22.1-8.5-8.5 1-4.6.7.1a2.2 2.2 0 1 0-2-1.4l-5 .6L9 .2a.5.5 0 0 0-.4-.2c-.1 0-.3 0-.4.2L6.7 1.7a.5.5 0 0 0 0 .7l.8.8A14.9 14.9 0 0 0 10 21l.2.1v6.7H3.6a2.7 2.7 0 0 0-2.6 2.7v1c0 .4.2.6.5.6h24.5c.3 0 .6-.2.6-.5v-1.1c0-1.5-1.2-2.7-2.7-2.7h-6.4V25a15 15 0 0 0 10.2-1.5h-.1l.8.9.4.1.4-.1 1.5-1.5a.5.5 0 0 0 0-.8zM23.3 6.2c.2-.2.4-.3.7-.3a1 1 0 0 1 0 2.2 1 1 0 0 1-.7-1.9zM22 9.7l-.6 3-1.1-1.2L22 9.7zm-.6-.9-1.9 2L18 9.2l3.4-.5zm2.6 20c.9 0 1.6.7 1.6 1.6v.5H2.1v-.5c0-.9.8-1.6 1.6-1.6H24zm-7.5-2.1v1h-5.3v-1h5.3zm-5.3-1.1v-4c0-1.3 1.2-2.4 2.7-2.4s2.6 1 2.6 2.3v4.1h-5.3zm6.4-1.7v-2.4c0-1.8-1.7-3.4-3.7-3.4-1.4 0-2.6.7-3.3 1.8A13.8 13.8 0 0 1 8.3 4V4L27 22.7a13.6 13.6 0 0 1-9.4 1.2h.1zm11.3-.7L7.9 2l.7-.7 8 8 13 13.2-.7.7z" style="fill:var(--color1, #2e2f42)"/><path fill="#4d5ae5" d="M13.9 20.3a1.6 1.6 0 0 0 0 3.2 1.6 1.6 0 0 0 0-3.2zm.3 2-.3.1a.5.5 0 0 1 0-1 .5.5 0 0 1 .3.8z" style="fill:var(--color2, #4d5ae5)"/></symbol><symbol id="icon-astronaut" viewBox="0 0 32 32"><path fill="#4d5ae5" d="M32 4.5c0-.2-.3-.3-.5-.3l-1.9-.3-.8-1.7c-.2-.4-.8-.4-1 0L27 3.9l-2 .3a.5.5 0 0 0-.2.9L26 6.4l-.3 2a.5.5 0 0 0 .8.5l1.7-1L30 9h.3a.5.5 0 0 0 .5-.6l-.3-1.9 1.3-1.3a.5.5 0 0 0 .2-.6zM29.5 6c-.1 0-.2.2-.1.4l.1 1.1-1-.5a.5.5 0 0 0-.5 0l-1 .5.2-1v-.2l-.1-.3-.8-.8 1.1-.2c.2 0 .3-.1.4-.3l.5-1 .5 1c0 .2.2.3.4.3l1.1.2-.8.8zm-3.4 14.6h-1v1h1v-1zm0 2.2h-1v1h1v-1zM27.2 21.6h-1v1h1v-1zm-2.1 0H24v1h1v-1zm-2.7 4.8h-1v1h1v-1zm0 2.1h-1v1h1v-1zm1-1h-1v1h1v-1zM21.3 27.5h-1v1h1v-1zM16 24.3h-1v1h1v-1zm0 2h-1v1.2h1v-1.1zm1-1h-1v1h1v-1zm-2 0h-1.1v1h1v-1zM5.8 6.1H4.8v1h1v-1zm0 2.2H4.8v1h1v-1zm1-1.1H6v1h1v-1zm-2.1 0h-1v1h1v-1z" style="fill:var(--color2, #4d5ae5)"/><path fill="#2e2f42" d="M24.7 14.2c-.3-.4-.7-.7-1.2-.7h-.2c-.4 0-.8 0-1.1.3l-1.3 1-1.9 1.4-1.3-.6a7 7 0 0 0-2.9-13.2A7 7 0 0 0 9 13H6l-3.2 1.6-2 1A1.8 1.8 0 0 0 .2 18a1.8 1.8 0 0 0 2.4.7L4 18l2.3-1.2h1.3l-5.4 5.4-1.3 1.3c-.3.3-.5.8-.5 1.2 0 .5.1.9.5 1.2a1.7 1.7 0 0 0 2.3 0l1.3-1.3 1.8-1.3.9.9-3.1 3c-.3.4-.5.8-.5 1.3A1.7 1.7 0 0 0 5.2 30c.5 0 .9-.1 1.2-.5l3.5-3.4 1-1 5.2-5.7 3.5.5h.2l.1-.1 3.3-2.1 1.3-1.3a1.8 1.8 0 0 0 .2-2.3zM2.1 17.8h-.5a.7.7 0 0 1-.2-1.2l1.3-.7.3 1 .1.3-1 .6zm3.5-1.9-1.5.8-.3-.7-.2-.5 2-1v1.4zm15.1-6.6c0 1-.2 1.8-.6 2.6l-4.2-2c0-.5-.3-1-.7-1.3l1.4-4.9c2.4.8 4.1 3 4.1 5.6zM9 9.3a5.9 5.9 0 0 1 6.7-5.8L14 8.3c-1 0-1.9.8-1.9 1.8s.9 1.9 1.9 1.9c.7 0 1.3-.4 1.6-1l3.9 1.8A5.9 5.9 0 0 1 8.9 9.3zm6 .8a.8.8 0 0 1-1.6 0c0-.4.3-.8.8-.8s.8.4.8.8zm-12.4 15a.6.6 0 0 1-.9 0 .6.6 0 0 1 0-.8l1-1 .8.9-1 1zM5.7 29a.6.6 0 0 1-.9 0 .6.6 0 0 1 0-.9l1-1 .8 1-1 .9zm3.5-3.5-1.8 1.8-.9-.9 1.8-1.7.1-.2v-.5l-1.7-1.7h-.1l-.1-.1H6l-1.9 1.4-.9-1 2.4-2.3 4.4 4.3-1 1zm6.8-7h-.4v.1l-4.8 5.2-4.3-4.2 2.8-2.9a.5.5 0 0 0-.4-.9H6.7v-1.6H10a7 7 0 0 0 6.3 2v.1l2.5 1 .1.7.2 1-3-.5zm4 .2-.3-1.6 1.5-1 .9 1.2-2 1.4zm3.8-2.9-.9.8-.9-1.2.8-.6a.7.7 0 0 1 1 .1c.3.3.2.7 0 1z" style="fill:var(--color1, #2e2f42)"/><path fill="#2e2f42" d="m13.6 18.5-2.1-2a.5.5 0 0 0-.8 0l-2.1 2a.5.5 0 0 0 0 .8l2.1 2.1a.5.5 0 0 0 .8 0l2.1-2.1a.5.5 0 0 0 0-.8zm-2.5 1.8-1.4-1.4 1.4-1.4 1.4 1.4-1.4 1.4zm6-15.2L17 6s1.7.5 1.7 2.2h1.1c0-2-1.7-3-2.5-3.2zm2.6 4.2h-1v1h1v-1z" style="fill:var(--color1, #2e2f42)"/></symbol><symbol id="icon-client-1" viewBox="0 0 61 32"><path  d="m25.5 8.4 2.5 2.4h-4.7v11.8h12.3V18l2.6 2.4V8.4H25.5zm10 9.4-7.2-7h7.2v7zm-2.2 3h-8V13h.5v7.4h7.5v.5zm-6.5 4-.3-.7h-.2l.4.8v.5h.2V25l.5-.8H27l-.3.6zM28 24l.6 1.3h-.3v-.3h-.6v.3h-.3l.5-1.3h.1zm-.2.8h.4l-.2-.5-.2.5zm1.6-.2-.1-.1v-.4h.4a.3.3 0 0 1 .2.3v.1h-.2v.1l.2.4v-.3h.2v.4l.1.2H29.2l-.1-.1v-.4l.2-.2zm0 .2a.2.2 0 0 0 0 .3h.1a.3.3 0 0 0 .3 0l-.3-.3zm.1-.3h.1v-.1h.1l-.1-.2h-.2v.2l.1.1zm2.3.4h-.2v.1l-.2.1H31l-.1-.2v-.6h.2v-.1h.2l.1.1v.2h.3v-.3l-.3-.1H30.8l-.1.3V25l.1.2a.5.5 0 0 0 .4.1h.2l.2-.2V25zm1.2-.2v-.3l-.1-.2-.2-.1H32l-.1.3V25l.1.2.2.1c0 .1.1 0 .2 0h.2l.2-.1V25l.1-.3zm-.2 0V25.1l-.2.1H32.2L32 25V24.4h.1l.2-.1h.1l.1.1V24.7z" style=""/></symbol><symbol id="icon-client-2" viewBox="0 0 61 32"><path  d="M29.9 8H29c-1.5 0-2.8.4-4 1h.1-.1v8h.3a13.8 13.8 0 0 1 4-.7v1h-.4c-.8 0-1.6.2-2.4.4h.1c-1 .2-2 .6-2.7 1V8.4c.8-.5 1.8-.9 2.8-1.1.8-.3 1.8-.4 2.7-.4h.2a11 11 0 0 1 1.8.2v1L30.2 8h-.3zm1.8 1h.7c1 0 2 0 2.9-.3l2.7-1v10.1c-1 .5-1.9.9-2.9 1.1-.8.3-1.7.4-2.7.4-.8 0-1.4-.1-2-.3V8.9a8.5 8.5 0 0 0 1.3.2zm5.2.1-.4.1-1 .3a11 11 0 0 1-3.7.4h-.4v8.3h1c.9 0 1.7 0 2.5-.3a10 10 0 0 0 1.9-.7h-.1.2v-8zM24.6 22.3a.5.5 0 0 0-.4-.2H24c-.2 0-.3.2-.3.3v1.9l.1.2.2.1h.5c.2 0 .3-.3.3-.5v-.2h-.4V24.2H24v-1.7h.4V22.8h.4v-.4l-.2-.1zm2.2 0a.6.6 0 0 0-.4-.2.6.6 0 0 0-.6.3V24.3l.2.2.1.1h.3l.4-.1a.6.6 0 0 0 .2-.5v-1.6l-.2-.2zm-.2 1.7v.2a.3.3 0 0 1-.4 0v-1.7a.3.3 0 0 1 .3 0l.1.2V24zm3 .6v-2.5h-.4l-.4 1.3-.5-1.3H28v2.5h.3v-1.5l.4 1h.2l.3-1v1.5h.4zm2-2.3-.2-.1h-.8v2.4h.4v-1h.5l.2-.2v-1.1zm-.2.8v.2H31v-.8h.4V23.2zm2-1H33l-.5 2.5h.3l.1-.5h.5l.1.5h.4l-.6-2.5zm-.4 1.6.2-.9.1 1H33zm2.6 0-.5-1.6h-.4v2.5h.4v-1.5l.5 1.5h.4v-2.5h-.4v1.5zm2.2-1.6-.3 1-.3-1h-.4l.5 1.5v1h.4v-1l.5-1.5h-.4zm-14.2 3.2h.2v.5h.1v-.5h.2-.5zm1.5 0-.2.5.1-.1h.3v.1h.1l-.2-.6h-.1zm0 .3v-.2l.1.2h-.1zm1.4 0h.1v.1h-.2v-.2l.1-.2.1.1h.2c0-.1-.1-.2-.3-.2h-.2v.5l.2.1h.3v-.3h-.3zm1.5-.4h-.1v.6h.4-.3v-.6zm1.2 0h-.1v.6h.1v-.6zm1.2.4-.2-.4H30v.6-.4l.3.4h.1v-.6.4zm1.1 0h.3v-.1h-.3v-.2h.3-.4v.5h.4-.3v-.2zm2.6-.1H34v-.3.6-.2h.3v.2-.6.3zm1.1 0h.3-.3v-.2h.4-.5v.5h.5-.4v-.2zm1.5 0 .2-.1v-.1h-.5v.5h.1v-.2h.1l.2.2h.1v-.1l-.2-.1zm0 0h-.2v-.2h.2v.1zm1.2 0h.2-.2v-.2h.3-.5v.5h.5-.3v-.2z" style=""/></symbol><symbol id="icon-client-3" viewBox="0 0 61 32"><path  d="m25 23.7.1.1-.2.1-.3.1h-.3l-.2-.2-.2-.2v-.5l.2-.2.2-.2h.6l.2.1v.1H24.1v.2l-.1.2v.3l.3.2H25zm2.3-.4v.3l-.2.2-.2.1a1 1 0 0 1-.6 0H26l-.2-.3a.7.7 0 0 1 0-.5c0-.1 0-.2.2-.2l.2-.2h.6l.2.2c.2 0 .2.2.2.4zm-.2 0v-.2l-.3-.2a.7.7 0 0 0-.4 0h-.2l-.1.2v.5a.4.4 0 0 0 .3.2H27v-.2l.1-.3zm1.8.3.6-.9h.2V24h-.2v-1l-.5.8h-.1l-.6-.9v1h-.2v-1.2h.2l.6.8zm2-.1v.5h-.2v-1.3H31.3l.2.1.1.1v.5h-.3l-.2.1h-.2zm0-.1h.4v-.1l.2-.2V23l-.1-.1h-.5v.5zm2.7.6h-.2l-.2-.4h-.7l-.1.3H32l.6-1.2h.2l.7 1.3zm-1-.5h.5L33 23v-.1h-.1l-.2.6zm1.8-.8 1 1v-1h.1V24h-.1l-1-1v1h-.1v-1.3h.1zm2.6.8v.5h-.2v-.5l-.6-.8h.2l.4.5v.1h.1l.4-.6h.2l-.5.8zm-8.2-3h.3c1.3-.5 2.5-1.3 3.3-2.4s1.2-2.3 1.2-3.6L32 13.2c.3 1.4.1 2.8-.5 4s-1.5 2.5-2.8 3.3z" style=""/><path d="M28.3 20.5c1.4-.9 2.4-2 3-3.4s.7-2.8.3-4.2l-2.1-1.8a7.7 7.7 0 0 1-1.2 9.4zm7.2-4.5a6.5 6.5 0 0 1-2.5 3.6l-1.1.7c1-.2 1.9-.7 2.7-1.3s1.4-1.4 1.8-2.2l-.9-.8z" style=""/><path  d="m35.2 15.8-1.3-1c0 1.2-.4 2.3-1.1 3.3s-1.8 1.9-3 2.5h.8c1.2-.5 2.2-1.1 3-2s1.3-1.7 1.6-2.8zm-6.7-5.5L27 9.1c-1.3.4-2.4 1.2-3.2 2.2s-1.2 2.1-1.3 3.3c0 1.4.6 2.6 1.5 3.7s2.3 1.8 3.8 2c1.4-1.3 2.2-3 2.3-4.8s-.5-3.6-1.6-5.2zm10 5.3c0-1.6-.7-3-2-4.2s-3-1.7-4.9-1.7c-.9 0-1.7.1-2.5.4l9 7.6a5 5 0 0 0 .4-2z" style=""/></symbol><symbol id="icon-client-4" viewBox="0 0 61 32"><path  d="M20.4 13.6c-.9 0-1.6.7-1.6 1.5 0 .7.7 1.4 1.6 1.4.9 0 1.6-.7 1.6-1.4 0-.8-.7-1.5-1.6-1.5zm11.6-.4c0-1.1-.5-2.1-1.3-3s-2-1.1-3.3-1.1c-1.2 0-2.3.4-3.2 1.2S23 12 23 13.2v6s9-1 9-6zm-16.4 8c0 .7.4 1.4 1 2s1.4.8 2.2.8c.8 0 1.6-.3 2.2-.8s1-1.3 1-2V17s-6.4.6-6.4 4.1zm3.2.7-.5-.1a.8.8 0 0 1-.3-.4.7.7 0 0 1 0-.4l.2-.4.4-.2h.5l.4.3a.7.7 0 0 1-.1 1l-.3.1-.3.1zm5.8-1.3V22h-.3v-1.5h.3zm.6.6v.3h-.7v-.3h.7zm0-.6v.2h-.7v-.2h.8zm1.5.7v.4l-.1.2-.3.2h-.5l-.2-.2-.1-.2V21l.1-.3.2-.1h.5l.3.1v.3l.1.3zm-.3 0v-.4h-.2l-.1-.1h-.2v.1l-.1.2v.6a.3.3 0 0 0 .3.2h.1l.1-.2v-.1l.1-.2zm1.4.4v-.1l-.2-.1h-.1l-.2-.1-.2-.1-.1-.2V20.8l.1-.2h.7c.1 0 .2 0 .2.2v.2h-.2v-.1h-.1l-.2-.1h-.2v.2l.1.1h.2l.2.2h.2a.4.4 0 0 1 0 .4v.3h-.2l-.3.1h-.2l-.2-.1-.1-.2-.1-.2h.3v.1l.1.1h.4v-.1zm1.2-1.1V22h-.3v-1.5h.3zm.5 0v.2h-1.3v-.2h1.3zm1.2 1.3v.2h-.8v-.2h.8zm-.7-1.3V22h-.3v-1.5h.3zm.6.6v.2h-.7v-.2h.7zm.1-.6v.2h-.8v-.2h.8zm.2 0H31.8l.2.2v.4l-.1.2h-.2l-.1.1h-.5v-.2h.5v-.1l.1-.2v-.2h-.5v1.3H31v-1.5zm.9 1.5-.4-.7h.3l.4.7h-.3zm1.6-.6H33v-.2H33.6v-.1l.1-.1v-.2h-.1l-.2-.1h-.2v1.3h-.4v-1.6h.6l.3.1a.5.5 0 0 1 .3.5v.2l-.3.2h-.3zm1.9.4v.2h-.8v-.2h.8zm-.7-1.3V22h-.4v-1.5h.4zm.6.6v.2h-.7v-.2h.7zm0-.6v.2h-.7v-.2h.8zm1 0V22h-.3v-1.5h.3zm.5 0v.2h-1.3v-.2h1.3zm1.2 1.3v.2H37v-.2h.8zm-.7-1.3V22h-.4v-1.5h.4zm.6.6v.2H37v-.2h.7zm0-.6v.2h-.7v-.2h.8zm.3 0h.9l.2.2v.4l-.1.2h-.2l-.1.1h-.5v-.2h.5v-.1l.1-.2-.1-.2h-.4v1.3H38v-1.5zm.8 1.5-.3-.7h.3l.4.7h-.4zm1.4-.4v-.1l-.2-.1H40l-.2-.1-.2-.1-.1-.2V20.8l.1-.2h.7c.1 0 .2 0 .2.2v.2h-.2v-.1l-.1-.1h-.4v.2l.1.1h.2l.2.2h.2V22h-.2a.9.9 0 0 1-.7 0l-.1-.2-.1-.2h.3v.1l.1.1h.4v-.1z" style=""/></symbol><symbol id="icon-client-5" viewBox="0 0 61 32"><path  d="m21.4 22 .1.3v.3l-.2.2a1 1 0 0 1-.6.1h-1v-2.2h1l.6.1.1.2c.1.1 0 .2 0 .2v.4l-.4.2c.2 0 .3 0 .4.2zm-1.3-.4h.8v-.4l-.3-.2H20v.6zm.8.9v-.1l.1-.1V22h-.1l-.3-.2h-.5v.6h.8zm2.6.4L23 22h-.2v1h-.5v-2.3h1c.2 0 .5 0 .6.2l.2.4-.1.5-.5.2.7 1h-.6zm-.8-1.2h.4c.3 0 .4 0 .4-.3V21h-.8v.6zm3.5.8h-1l-.1.4h-.6l1-2.2h.5l1 2.2h-.6l-.2-.4zm-.1-.4-.4-1-.3 1h.7zm3.5.8h-.5l-1-1.5v1.5h-.6v-2.2h.5l1.1 1.5v-1.5h.5v2.2zm2.9-.5a1 1 0 0 1-.5.4l-.7.1h-.9v-2.2h1l.6.1.5.4a1.2 1.2 0 0 1 0 1.2zm-.6 0 .2-.6c0-.2 0-.4-.2-.5a1 1 0 0 0-.6-.2h-.4v1.4h.4c.3 0 .4 0 .6-.2zM26.5 8.2s6.4 2.1 6.3 5.3v5.3s-6.4-2.2-6.3-5.3V8.3zm12 9.4a9.4 9.4 0 0 1 4-1.4v-1.6a8.2 8.2 0 0 0-4 3z" style=""/><path  d="M37.8 18.2c1-1.8 2.7-3.2 4.7-3.9V9.5s-9 3.1-8.9 7.6v7.5l1-.4.1-.7c.2-2 1.3-4 3-5.3z" style=""/><path  d="M36.9 21c0-.6.2-1 .3-1.6a7 7 0 0 0-2 4.6c.9-.3 1.4-.6 2-1l-.2.2a6.9 6.9 0 0 1-.1-2.3zm.4 0a6.5 6.5 0 0 0 0 2c2.6-1.4 5.3-3.4 5.2-6V17c-1.7.1-3.4.8-4.7 2-.3.6-.5 1.3-.5 2v.1z" style=""/></symbol><symbol id="icon-client-6" viewBox="0 0 61 32"><path  d="M31.1 15.8a1 1 0 0 1-.2-.7v-1c0-.4 0-.6.2-.8s.4-.3.8-.3c.3 0 .5.1.7.3l.2.6v.2h-.6v-.5l-.1-.1h-.5v2l.1.1h.4v-.7h.7v.3l-.2.6c-.2.2-.4.3-.7.3s-.7-.1-.8-.3zm2.5 0c-.2-.2-.2-.4-.2-.7V14c0-.3 0-.6.2-.7s.4-.3.7-.3c.4 0 .7.1.8.3.2.1.2.4.2.7v1c0 .4 0 .6-.2.8s-.4.3-.8.3-.6-.1-.7-.3zm1-.3.1-.3V13.5h-.2a.3.3 0 0 0-.2 0h-.2l-.1.4V15.6h.2a.4.4 0 0 0 .3 0h.1zm1.4-2.4h.7l.5 2 .5-2h.6v3H38V14l-.5 2H37l-.5-2v2H36v-3zm3 0h1c.7 0 1 .3 1 .8s-.3.8-1 .8h-.3V16h-.6v-3zm1 1.2a.5.5 0 0 0 .3 0V13.4h-.6v.8h.2zm1.8-1.2h.7l.7 3h-.6l-.1-.8h-.6l-.1.7h-.6l.6-3zm.6 1.9-.2-1.2L42 15h.4zm1.3-2h.5l.8 1.7v-1.6h.5v3h-.4l-.8-1.8V16h-.6v-3zm3 1.9L46 13h.6l.4 1.1.4-1.1h.6l-.7 1.8V16h-.6V15zm-14.6 2.4v.2h-.5v1.1h-.3v-1.1h-.5v-.2h1.3zm1.5 1.3h-.1l-.2-.3h-.7l-.2.3h-.2l.6-1.3h.2l.6 1.4zm-1-.5h.6l-.2-.5v-.1h-.1v.1l-.3.5zm2.1.4H35V18h-.2V18h.5v.5l-.3.1a1.2 1.2 0 0 1-.3 0 1 1 0 0 1-.3 0l-.3-.1-.1-.2v-.6l.1-.2.3-.2a1 1 0 0 1 .5 0 .9.9 0 0 1 .2 0l.2.2H34.4l-.1.1-.1.2a.6.6 0 0 0 0 .4v.2h.3l.2.1zm2 0h.7v.1h-1v-1.3h.3v1.2zm1.4.1h-.3v-1.3h.3v1.3zm.7-1.3 1 1v-1h.2v1.4h-.2l-1-1.1v1h-.1v-1.3h.1zm2.7 0v.1h-.7v.5h.6v.1h-.6v.5h.7v.1h-1v-1.3h1zM19.3 9l9.4 2.3v8L19.3 17V9zm-.6-.7v9.1L29.3 20V11L18.7 8.3z" style=""/><path  d="m24.4 24.3-10.6-2.6v-9.2l10.6 2.6v9.2z" style=""/><path  d="m19 8.9 9.2 2.2-4 3.4-9.2-2.2 4-3.4zm-.3-.6-4.9 4.2 10.6 2.6 5-4.2-10.7-2.6zM25 23.8l4.3-3.8-4.3-1v4.8z" style=""/></symbol><symbol id="icon-clock" viewBox="0 0 32 32"><path fill="#2e2f42" d="M31.3 15.3a15.3 15.3 0 1 0-20 14.6H12l.3-.4L16 17.2a2 2 0 1 0-.8-3.6L10 8.5a.6.6 0 1 0-1 .9l5.2 5c-.2.3-.2.6-.2 1 0 .5.3 1 .7 1.4l-3.7 11.7a14 14 0 1 1 10.7-.4h-.1l-.4-1.9a.6.6 0 0 0-1-.3l-3.9 3.4-.2.5c0 .3.2.5.4.6l5 1.6h.1a.6.6 0 0 0 .7-.8l-.4-1.8c5.5-2.4 9.3-7.8 9.3-14v-.1zM16 14.7a.6.6 0 0 1 0 1.2.6.6 0 0 1 0-1.2zm2 14.8 2.3-2 .6 3-2.8-1z" style="fill:var(--color1, #2e2f42)"/><path fill="#4d5ae5" d="M15.4 3.2v1.3a.6.6 0 1 0 1.2 0V3.2a.6.6 0 0 0-1.2 0zM3.9 14.7a.6.6 0 1 0 0 1.2h1.3a.6.6 0 1 0 0-1.2H3.9zM28 15.9a.6.6 0 1 0 0-1.2h-1.3a.6.6 0 0 0 0 1.2h1.3z" style="fill:var(--color2, #4d5ae5)"/></symbol><symbol id="icon-diagram" viewBox="0 0 32 32"><path fill="#4d5ae5" d="M15 15h1v4.8h-1V15zm4.2 2.1h1v2.7h-1V17zm-8.5 1.6h1v1h-1v-1zm-3.2-.5h1v1.6h-1v-1.6z" style="fill:var(--color2, #4d5ae5)"/><path fill="#2e2f42" d="M1.6 28.3h25.6c.9 0 1.6-.7 1.6-1.6v-2.1c0-1-.7-1.6-1.6-1.6h-.5V9.7l3-2.9.7.2a1.6 1.6 0 1 0-1.5-1l-2.2 2.2V7c0-1-.8-1.6-1.6-1.6H3.7c-.9 0-1.6.7-1.6 1.6v16h-.5c-.9 0-1.6.7-1.6 1.6v2c0 1 .7 1.7 1.6 1.7zM30.4 4.8a.5.5 0 0 1 0 1.1.5.5 0 0 1 0-1zM3.2 7c0-.3.2-.6.5-.6h21.4c.2 0 .5.3.5.6v2.2l-1 1V8c0-.3-.3-.5-.6-.5H4.8c-.3 0-.5.2-.5.5v13.4c0 .3.2.5.5.5H24c.3 0 .5-.2.5-.5v-9.7l1-1V23H3.3V7zM8 13.9A1.6 1.6 0 1 0 9 16.6l1.9 1 .6-.1 4-4.5 3.8 3 .7-.1 3.4-3.2v8.1H5.3V8.6h18.2v2.6l-3.8 3.6-4-3a.5.5 0 0 0-.6.1l-4 4.5-1.5-.7v-.2c0-.9-.7-1.6-1.6-1.6zm.5 1.6a.5.5 0 0 1-1 0 .5.5 0 0 1 1 0zm3.2 8.5h5.4v.6c0 .3-.3.5-.6.5h-4.2a.5.5 0 0 1-.6-.5V24zm-10.6.6c0-.3.2-.6.5-.6h9v.6c0 .8.8 1.6 1.7 1.6h4.2c1 0 1.6-.8 1.6-1.6V24h9c.4 0 .6.3.6.6v2c0 .4-.2.6-.5.6H1.6a.5.5 0 0 1-.5-.5v-2.1z" style="fill:var(--color1, #2e2f42)"/></symbol><symbol id="icon-facebook" viewBox="0 0 32 32"><path  d="M21.3 5.3h3v-5C23 0 21.6 0 20 0H20c-4.2 0-7.1 2.6-7.1 7.5V12H8.2v5.7H13V32h5.7V17.7h4.5l.7-5.7h-5.2V8c0-1.6.4-2.7 2.7-2.7z" style=""/></symbol><symbol id="icon-instagram" viewBox="0 0 32 32"><path  d="M32 9.4c-.1-1.7-.4-2.9-.8-3.9s-1-2-1.8-2.8A7.9 7.9 0 0 0 26.6.9c-1-.5-2.2-.7-4-.8a110.6 110.6 0 0 0-17 .7c-1.1.5-2 1-2.9 1.9C2 3.5 1.3 4.4 1 5.5.5 6.5.2 7.7.2 9.4a110.5 110.5 0 0 0 .7 17c.4 1.2 1 2.1 1.8 3 .8.7 1.8 1.4 2.9 1.8 1 .4 2.2.6 3.9.7a116.2 116.2 0 0 0 17-.7 8.2 8.2 0 0 0 4.7-4.7c.4-1 .7-2.2.8-3.9a116.2 116.2 0 0 0 0-13.2zm-3 13c0 1.6-.2 2.5-.5 3a5.3 5.3 0 0 1-3 3c-.6.3-1.4.6-3 .6a111.7 111.7 0 0 1-15.9-.5 5 5 0 0 1-1.8-1.2 5 5 0 0 1-1.2-1.8c-.2-.6-.5-1.5-.5-3a113.8 113.8 0 0 1 .5-16l1.2-1.8a5 5 0 0 1 1.8-1.2c.6-.2 1.5-.4 3-.5a113.7 113.7 0 0 1 15.9.5 5 5 0 0 1 1.8 1.2 5 5 0 0 1 1.2 1.9c.3.5.5 1.4.6 3a111.7 111.7 0 0 1 0 12.9z" style=""/><path  d="M16 7.8a8.2 8.2 0 0 0 0 16.4 8.2 8.2 0 0 0 0-16.4zm0 13.5a5.3 5.3 0 1 1 0-10.6 5.3 5.3 0 1 1 0 10.6zM26.6 7.5a2 2 0 0 1-3.8 0 2 2 0 0 1 3.8 0z" style=""/></symbol><symbol id="icon-linkedin" viewBox="0 0 32 32"><path  d="M32 32V20.3c0-5.8-1.2-10.2-8-10.2a7 7 0 0 0-6.2 3.4h-.1v-2.9h-6.4V32H18V21.4c0-2.8.6-5.5 4-5.5s3.5 3.2 3.5 5.7V32H32zM.5 10.6h6.7V32H.5V10.6zM3.8 0C1.8 0 0 1.7 0 3.8s1.7 4 3.8 4c2.2 0 3.9-1.8 3.9-4S6 0 3.8 0z" style=""/></symbol><symbol id="icon-twitter" viewBox="0 0 32 32"><path  d="M32 6c-1.1.6-2.4 1-3.7 1.1 1.3-.8 2.3-2 2.8-3.6-1.2.7-2.6 1.3-4 1.6h-.2a6.5 6.5 0 0 0-11.3 4.5c0 .5 0 1 .2 1.5A18.6 18.6 0 0 1 2.3 4.2c-.6 1-1 2-1 3.3 0 2.3 1.2 4.3 3 5.4-1.1 0-2.2-.3-3-.8v.1c0 3.2 2.2 5.8 5.2 6.5l-1.6.2h-.2l-1.2-.1a6.6 6.6 0 0 0 6.2 4.5c-2.2 1.8-5 2.8-8.1 2.8H0A18.5 18.5 0 0 0 28.7 9.5c1.3-1 2.4-2 3.3-3.4z" style=""/></symbol></defs></svg>